# xmcd CD database file
#
# Track frame offsets:
#	150
#	28664
#	52586
#	72358
#	97839
#	115668
#	137573
#	163106
#	184004
#	210235
#
# Disc length: 3376 seconds
#
# Revision: 0
# Processed by: cddbd v1.5.2PL0 Copyright (c) Steve Scherf et al.
# Submitted via: CDex 1.51
#
DISCID=770d2e0a
DTITLE=Toni Solà - Antistress
DYEAR=2009
DGENRE=Jazz
TTITLE0=Uncle Alive
TTITLE1=Chelsea Bridge
TTITLE2=The Morning Singer
TTITLE3=Berkshire Blues
TTITLE4=Alfie
TTITLE5=Rocks in my Bed
TTITLE6=Don't Love Me
TTITLE7=Oh Gee!
TTITLE8=Mona Lisa
TTITLE9=Holy Land
EXTD=YEAR: 2009
EXTT0=
EXTT1=
EXTT2=
EXTT3=
EXTT4=
EXTT5=
EXTT6=
EXTT7=
EXTT8=
EXTT9=
PLAYORDER=
